{
 "accessors": [
  {
   "componentType": 5126,
   "type": "VEC3",
   "count": 24,
   "max": [
    1005,
    20,
    750
   ],
   "min": [
    -1005,
    0,
    -750
   ],
   "bufferView": 1
  },
  {
   "componentType": 5126,
   "type": "VEC3",
   "count": 24,
   "bufferView": 2
  },
  {
   "componentType": 5126,
   "type": "VEC2",
   "count": 24,
   "bufferView": 3
  },
  {
   "componentType": 5121,
   "type": "SCALAR",
   "count": 36,
   "bufferView": 4
  }
 ],
 "asset": {
  "version": "2.0",
  "generator": "clara.io"
 },
 "bufferViews": [
  {
   "buffer": 0,
   "byteOffset": 0,
   "byteLength": 83856
  },
  {
   "buffer": 0,
   "byteOffset": 83856,
   "byteLength": 288,
   "target": 34962,
   "byteStride": 12
  },
  {
   "buffer": 0,
   "byteOffset": 84144,
   "byteLength": 288,
   "target": 34962,
   "byteStride": 12
  },
  {
   "buffer": 0,
   "byteOffset": 84432,
   "byteLength": 192,
   "target": 34962,
   "byteStride": 8
  },
  {
   "buffer": 0,
   "byteOffset": 84624,
   "byteLength": 36,
   "target": 34963
  }
 ],
 "buffers": [
  {
   "byteLength": 84660,
   "uri": "data:application/octet-stream;base64,"
  }
 ],
 "images": [
  {
   "name": "photo-1525034687081-c702010cb70d.jpeg",
   "bufferView": 0,
   "mimeType": "image/jpeg"
  }
 ],
 "materials": [
  {
   "name": "wooden",
   "pbrMetallicRoughness": {
    "baseColorFactor": [
     0.6901960784313725,
     0.6901960784313725,
     0.6901960784313725,
     1
    ],
    "baseColorTexture": {
     "index": 0,
     "texCoord": 0
    },
    "roughnessFactor": 0.25,
    "metallicFactor": 0
   }
  }
 ],
 "meshes": [
  {
   "primitives": [
    {
     "indices": 3,
     "material": 0,
     "mode": 4,
     "attributes": {
      "POSITION": 0,
      "NORMAL": 1,
      "TEXCOORD_0": 2
     }
    }
   ]
  }
 ],
 "nodes": [
  {
   "name": "mat_root",
   "scale": [
    0.009999999776482582,
    0.009999999776482582,
    0.009999999776482582
   ],
   "children": [
    1
   ]
  },
  {
   "name": "Group_001",
   "mesh": 0
  }
 ],
 "samplers": [
  {
   "magFilter": 9729,
   "minFilter": 9987,
   "wrapS": 10497,
   "wrapT": 10497
  }
 ],
 "scene": 0,
 "scenes": [
  {
   "nodes": [
    0
   ]
  }
 ],
 "textures": [
  {
   "sampler": 0,
   "source": 0
  }
 ]
}